<?xml version="1.0" standalone="no"?>
<!DOCTYPE svg PUBLIC "-//W3C//DTD SVG 20010904//EN"
 "http://www.w3.org/TR/2001/REC-SVG-20010904/DTD/svg10.dtd">
<svg version="1.0" xmlns="http://www.w3.org/2000/svg"
 width="270.000000pt" height="270.000000pt" viewBox="0 0 270.000000 270.000000"
 preserveAspectRatio="xMidYMid meet">
<metadata>
Created by potrace 1.11, written by Peter Selinger 2001-2013
</metadata>
<g transform="translate(0.000000,270.000000) scale(0.100000,-0.100000)"
fill="#000000" stroke="none">
<path d="M220 1381 c-53 -14 -53 -19 -54 -646 0 -432 7 -644 22 -700 8 -27 13
-30 47 -30 34 0 39 3 46 30 14 49 21 234 22 542 0 161 2 293 3 293 1 0 21 -33
44 -72 72 -122 122 -188 147 -194 31 -8 117 34 166 82 43 42 107 153 195 337
56 116 78 148 79 115 1 -7 4 -58 7 -113 7 -111 13 -261 21 -500 13 -374 17
-408 55 -435 16 -11 40 -20 54 -20 44 0 52 40 27 137 -19 78 -21 101 -36 753
-3 129 -8 250 -10 269 -12 91 -37 140 -73 142 -67 5 -91 -22 -183 -209 -94
-189 -194 -363 -233 -406 -26 -27 -28 -28 -47 -10 -43 38 -113 212 -205 508
-33 104 -57 137 -94 127z"/>
<path d="M2267 1314 c-1 -1 -20 -4 -42 -7 -22 -4 -65 -11 -95 -17 -30 -6 -68
-13 -85 -16 -16 -2 -37 -7 -45 -9 -14 -4 -39 -8 -115 -21 -16 -2 -79 -13 -140
-24 -60 -10 -126 -21 -145 -24 -250 -37 -306 -50 -314 -71 -19 -51 70 -82 162
-55 19 5 77 12 129 15 53 3 99 7 102 10 9 5 121 19 149 18 12 -1 28 -6 36 -12
14 -12 32 -66 41 -126 3 -23 7 -51 10 -64 2 -12 7 -52 10 -89 3 -37 8 -83 10
-102 2 -19 7 -78 10 -130 24 -398 41 -521 77 -559 14 -15 24 -18 41 -12 21 8
22 14 20 92 0 46 -4 118 -7 159 -4 41 -8 104 -11 140 -2 36 -7 99 -10 140 -3
41 -8 102 -10 135 -15 212 -28 322 -50 426 -6 25 -4 26 92 48 129 29 133 29
241 36 90 5 152 21 166 44 11 17 -38 59 -83 71 -34 9 -135 12 -144 4z"/>
</g>
</svg>
